<svg xmlns="http://www.w3.org/2000/svg" viewBox="0 0 256 256" role="img" aria-labelledby="title desc">
  <title id="title">Rowan leaf mark</title><desc id="desc">A gold branch with leaves on a deep red rounded square.</desc>
  <defs><linearGradient id="bg" x2="1" y2="1"><stop stop-color="#3d0711"/><stop offset="1" stop-color="#7d291f"/></linearGradient><linearGradient id="gold" x2="1" y2="1"><stop stop-color="#fff0af"/><stop offset=".42" stop-color="#e8a23c"/><stop offset="1" stop-color="#fff0ad"/></linearGradient></defs>
  <rect x="7" y="7" width="242" height="242" rx="48" fill="url(#bg)" stroke="#e8a23c" stroke-width="2"/>
  <g fill="url(#gold)" stroke="#f9d477" stroke-width="1.4" stroke-linejoin="round">
    <path d="M65 220 C91 155 128 101 194 62" fill="none" stroke="url(#gold)" stroke-width="5" stroke-linecap="round"/>
    <path d="M91 165 C75 150 65 134 58 113 C80 120 94 135 98 151 Z"/><path d="M103 144 C91 122 89 103 91 82 C109 97 117 115 113 133 Z"/>
    <path d="M119 125 C116 101 122 83 132 65 C143 85 143 103 134 119 Z"/><path d="M138 104 C145 80 160 66 179 55 C176 78 164 94 146 106 Z"/>
    <path d="M151 94 C172 78 192 76 215 79 C197 94 178 99 155 99 Z"/><path d="M124 130 C145 115 166 114 187 120 C169 135 148 137 127 135 Z"/>
    <path d="M103 157 C125 147 145 150 161 160 C142 170 122 169 105 164 Z"/><path d="M85 184 C100 170 117 166 135 170 C121 185 104 190 87 188 Z"/>
    <path d="M77 202 C64 187 61 171 63 154 C78 166 84 181 82 198 Z"/>
  </g>
  <g stroke="#6b1c18" stroke-width="1.5" fill="none" stroke-linecap="round"><path d="M65 220 C91 155 128 101 194 62"/><path d="M91 165L58 113M103 144L91 82M119 125L132 65M138 104L179 55M151 94L215 79M124 130L187 120M103 157L161 160M85 184L135 170M77 202L63 154"/></g>
</svg>
